<svg xmlns="http://www.w3.org/2000/svg" xmlns:xlink="http://www.w3.org/1999/xlink" width="500" zoomAndPan="magnify" viewBox="0 0 375 374.999991" height="500" preserveAspectRatio="xMidYMid meet" version="1.2"><defs><linearGradient x1="0" gradientTransform="matrix(0.75,0,0,0.75,0.0000045,0)" y1="250" x2="499.999979" gradientUnits="userSpaceOnUse" y2="250" id="5acb49affc"><stop style="stop-color:#cdffd8;stop-opacity:1;" offset="0"/><stop style="stop-color:#cdffd8;stop-opacity:1;" offset="0.0078125"/><stop style="stop-color:#ccfed8;stop-opacity:1;" offset="0.015625"/><stop style="stop-color:#ccfed9;stop-opacity:1;" offset="0.0234375"/><stop style="stop-color:#cbfdd9;stop-opacity:1;" offset="0.03125"/><stop style="stop-color:#cbfdd9;stop-opacity:1;" offset="0.0390625"/><stop style="stop-color:#cbfcda;stop-opacity:1;" offset="0.046875"/><stop style="stop-color:#cafbda;stop-opacity:1;" offset="0.0546875"/><stop style="stop-color:#cafbda;stop-opacity:1;" offset="0.0625"/><stop style="stop-color:#c9fadb;stop-opacity:1;" offset="0.0703125"/><stop style="stop-color:#c9fadb;stop-opacity:1;" offset="0.078125"/><stop style="stop-color:#c8f9db;stop-opacity:1;" offset="0.0859375"/><stop style="stop-color:#c8f9db;stop-opacity:1;" offset="0.09375"/><stop style="stop-color:#c7f8dc;stop-opacity:1;" offset="0.101562"/><stop style="stop-color:#c7f8dc;stop-opacity:1;" offset="0.109375"/><stop style="stop-color:#c7f7dc;stop-opacity:1;" offset="0.117188"/><stop style="stop-color:#c6f7dd;stop-opacity:1;" offset="0.125"/><stop style="stop-color:#c6f6dd;stop-opacity:1;" offset="0.132812"/><stop style="stop-color:#c5f5dd;stop-opacity:1;" offset="0.140625"/><stop style="stop-color:#c5f5de;stop-opacity:1;" offset="0.148437"/><stop style="stop-color:#c4f4de;stop-opacity:1;" offset="0.15625"/><stop style="stop-color:#c4f4de;stop-opacity:1;" offset="0.164062"/><stop style="stop-color:#c3f3df;stop-opacity:1;" offset="0.171875"/><stop style="stop-color:#c3f3df;stop-opacity:1;" offset="0.179687"/><stop style="stop-color:#c3f2df;stop-opacity:1;" offset="0.1875"/><stop style="stop-color:#c2f2df;stop-opacity:1;" offset="0.195312"/><stop style="stop-color:#c2f1e0;stop-opacity:1;" offset="0.203125"/><stop style="stop-color:#c1f0e0;stop-opacity:1;" offset="0.210938"/><stop style="stop-color:#c1f0e0;stop-opacity:1;" offset="0.21875"/><stop style="stop-color:#c0efe1;stop-opacity:1;" offset="0.226562"/><stop style="stop-color:#c0efe1;stop-opacity:1;" offset="0.234375"/><stop style="stop-color:#bfeee1;stop-opacity:1;" offset="0.242188"/><stop style="stop-color:#bfeee2;stop-opacity:1;" offset="0.25"/><stop style="stop-color:#bfede2;stop-opacity:1;" offset="0.257812"/><stop style="stop-color:#beede2;stop-opacity:1;" offset="0.265625"/><stop style="stop-color:#beece2;stop-opacity:1;" offset="0.273437"/><stop style="stop-color:#bdece3;stop-opacity:1;" offset="0.28125"/><stop style="stop-color:#bdebe3;stop-opacity:1;" offset="0.289062"/><stop style="stop-color:#bceae3;stop-opacity:1;" offset="0.296875"/><stop style="stop-color:#bceae4;stop-opacity:1;" offset="0.304687"/><stop style="stop-color:#bbe9e4;stop-opacity:1;" offset="0.3125"/><stop style="stop-color:#bbe9e4;stop-opacity:1;" offset="0.320312"/><stop style="stop-color:#bae8e5;stop-opacity:1;" offset="0.328125"/><stop style="stop-color:#bae8e5;stop-opacity:1;" offset="0.335937"/><stop style="stop-color:#bae7e5;stop-opacity:1;" offset="0.34375"/><stop style="stop-color:#b9e7e6;stop-opacity:1;" offset="0.351562"/><stop style="stop-color:#b9e6e6;stop-opacity:1;" offset="0.359375"/><stop style="stop-color:#b8e6e6;stop-opacity:1;" offset="0.367187"/><stop style="stop-color:#b8e5e6;stop-opacity:1;" offset="0.375"/><stop style="stop-color:#b7e4e7;stop-opacity:1;" offset="0.382812"/><stop style="stop-color:#b7e4e7;stop-opacity:1;" offset="0.390625"/><stop style="stop-color:#b6e3e7;stop-opacity:1;" offset="0.398438"/><stop style="stop-color:#b6e3e8;stop-opacity:1;" offset="0.40625"/><stop style="stop-color:#b6e2e8;stop-opacity:1;" offset="0.414062"/><stop style="stop-color:#b5e2e8;stop-opacity:1;" offset="0.421875"/><stop style="stop-color:#b5e1e9;stop-opacity:1;" offset="0.429688"/><stop style="stop-color:#b4e1e9;stop-opacity:1;" offset="0.4375"/><stop style="stop-color:#b4e0e9;stop-opacity:1;" offset="0.445312"/><stop style="stop-color:#b3dfea;stop-opacity:1;" offset="0.453125"/><stop style="stop-color:#b3dfea;stop-opacity:1;" offset="0.460938"/><stop style="stop-color:#b2deea;stop-opacity:1;" offset="0.46875"/><stop style="stop-color:#b2deea;stop-opacity:1;" offset="0.476562"/><stop style="stop-color:#b2ddeb;stop-opacity:1;" offset="0.484375"/><stop style="stop-color:#b1ddeb;stop-opacity:1;" offset="0.492188"/><stop style="stop-color:#b1dceb;stop-opacity:1;" offset="0.5"/><stop style="stop-color:#b0dcec;stop-opacity:1;" offset="0.507812"/><stop style="stop-color:#b0dbec;stop-opacity:1;" offset="0.515625"/><stop style="stop-color:#afdbec;stop-opacity:1;" offset="0.523437"/><stop style="stop-color:#afdaed;stop-opacity:1;" offset="0.53125"/><stop style="stop-color:#aed9ed;stop-opacity:1;" offset="0.539062"/><stop style="stop-color:#aed9ed;stop-opacity:1;" offset="0.546875"/><stop style="stop-color:#aed8ed;stop-opacity:1;" offset="0.554687"/><stop style="stop-color:#add8ee;stop-opacity:1;" offset="0.5625"/><stop style="stop-color:#add7ee;stop-opacity:1;" offset="0.570312"/><stop style="stop-color:#acd7ee;stop-opacity:1;" offset="0.578125"/><stop style="stop-color:#acd6ef;stop-opacity:1;" offset="0.585937"/><stop style="stop-color:#abd6ef;stop-opacity:1;" offset="0.59375"/><stop style="stop-color:#abd5ef;stop-opacity:1;" offset="0.601562"/><stop style="stop-color:#aad5f0;stop-opacity:1;" offset="0.609375"/><stop style="stop-color:#aad4f0;stop-opacity:1;" offset="0.617187"/><stop style="stop-color:#aad3f0;stop-opacity:1;" offset="0.625"/><stop style="stop-color:#a9d3f1;stop-opacity:1;" offset="0.632812"/><stop style="stop-color:#a9d2f1;stop-opacity:1;" offset="0.640625"/><stop style="stop-color:#a8d2f1;stop-opacity:1;" offset="0.648437"/><stop style="stop-color:#a8d1f1;stop-opacity:1;" offset="0.65625"/><stop style="stop-color:#a7d1f2;stop-opacity:1;" offset="0.664062"/><stop style="stop-color:#a7d0f2;stop-opacity:1;" offset="0.671875"/><stop style="stop-color:#a6d0f2;stop-opacity:1;" offset="0.679687"/><stop style="stop-color:#a6cff3;stop-opacity:1;" offset="0.6875"/><stop style="stop-color:#a6cff3;stop-opacity:1;" offset="0.695312"/><stop style="stop-color:#a5cef3;stop-opacity:1;" offset="0.703125"/><stop style="stop-color:#a5cdf4;stop-opacity:1;" offset="0.710937"/><stop style="stop-color:#a4cdf4;stop-opacity:1;" offset="0.71875"/><stop style="stop-color:#a4ccf4;stop-opacity:1;" offset="0.726562"/><stop style="stop-color:#a3ccf4;stop-opacity:1;" offset="0.734375"/><stop style="stop-color:#a3cbf5;stop-opacity:1;" offset="0.742187"/><stop style="stop-color:#a2cbf5;stop-opacity:1;" offset="0.75"/><stop style="stop-color:#a2caf5;stop-opacity:1;" offset="0.757812"/><stop style="stop-color:#a2caf6;stop-opacity:1;" offset="0.765625"/><stop style="stop-color:#a1c9f6;stop-opacity:1;" offset="0.773438"/><stop style="stop-color:#a1c8f6;stop-opacity:1;" offset="0.78125"/><stop style="stop-color:#a0c8f7;stop-opacity:1;" offset="0.789062"/><stop style="stop-color:#a0c7f7;stop-opacity:1;" offset="0.796875"/><stop style="stop-color:#9fc7f7;stop-opacity:1;" offset="0.804688"/><stop style="stop-color:#9fc6f8;stop-opacity:1;" offset="0.8125"/><stop style="stop-color:#9ec6f8;stop-opacity:1;" offset="0.820312"/><stop style="stop-color:#9ec5f8;stop-opacity:1;" offset="0.828125"/><stop style="stop-color:#9dc5f8;stop-opacity:1;" offset="0.835938"/><stop style="stop-color:#9dc4f9;stop-opacity:1;" offset="0.84375"/><stop style="stop-color:#9dc4f9;stop-opacity:1;" offset="0.851562"/><stop style="stop-color:#9cc3f9;stop-opacity:1;" offset="0.859375"/><stop style="stop-color:#9cc2fa;stop-opacity:1;" offset="0.867188"/><stop style="stop-color:#9bc2fa;stop-opacity:1;" offset="0.875"/><stop style="stop-color:#9bc1fa;stop-opacity:1;" offset="0.882812"/><stop style="stop-color:#9ac1fb;stop-opacity:1;" offset="0.890625"/><stop style="stop-color:#9ac0fb;stop-opacity:1;" offset="0.898438"/><stop style="stop-color:#99c0fb;stop-opacity:1;" offset="0.90625"/><stop style="stop-color:#99bffb;stop-opacity:1;" offset="0.914062"/><stop style="stop-color:#99bffc;stop-opacity:1;" offset="0.921875"/><stop style="stop-color:#98befc;stop-opacity:1;" offset="0.929688"/><stop style="stop-color:#98befc;stop-opacity:1;" offset="0.9375"/><stop style="stop-color:#97bdfd;stop-opacity:1;" offset="0.945312"/><stop style="stop-color:#97bcfd;stop-opacity:1;" offset="0.953125"/><stop style="stop-color:#96bcfd;stop-opacity:1;" offset="0.960938"/><stop style="stop-color:#96bbfe;stop-opacity:1;" offset="0.96875"/><stop style="stop-color:#95bbfe;stop-opacity:1;" offset="0.976562"/><stop style="stop-color:#95bafe;stop-opacity:1;" offset="0.984375"/><stop style="stop-color:#95baff;stop-opacity:1;" offset="0.992188"/><stop style="stop-color:#94b9ff;stop-opacity:1;" offset="1"/></linearGradient><clipPath id="a509a161fd"><path d="M 165 107 L 280.855469 107 L 280.855469 274.394531 L 165 274.394531 Z M 165 107 "/></clipPath><clipPath id="856f3fc337"><path d="M 94.105469 71.144531 L 210 71.144531 L 210 239 L 94.105469 239 Z M 94.105469 71.144531 "/></clipPath></defs><g id="11ddff4f03"><rect x="0" width="375" y="0" height="374.999991" style="fill:#ffffff;fill-opacity:1;stroke:none;"/><rect x="0" width="375" y="0" height="374.999991" style="fill:url(#5acb49affc);stroke:none;"/><g clip-rule="nonzero" clip-path="url(#a509a161fd)"><path style=" stroke:none;fill-rule:nonzero;fill:#000000;fill-opacity:1;" d="M 280.753906 273.605469 C 275.386719 265.050781 270.007812 256.492188 264.628906 247.933594 L 256.554688 235.128906 L 248.453125 222.316406 L 232.21875 196.714844 L 216.988281 172.734375 L 236.597656 143.941406 L 241.757812 136.371094 C 243.488281 133.851562 245.199219 131.324219 246.941406 128.8125 L 257.371094 113.742188 L 261.585938 107.652344 L 205.96875 107.277344 L 204.796875 109.371094 C 203.082031 112.441406 201.40625 115.527344 199.71875 118.605469 L 198.453125 120.921875 L 197.203125 123.246094 L 194.695312 127.882812 L 189.738281 137.1875 L 187.210938 141.988281 C 186.25 140.523438 185.285156 139.0625 184.320312 137.605469 L 181.363281 133.183594 L 178.375 128.773438 L 175.390625 124.378906 L 172.363281 120 C 170.335938 117.082031 168.277344 114.183594 166.1875 111.304688 C 166.128906 111.203125 166.039062 111.136719 165.925781 111.105469 C 165.808594 111.078125 165.699219 111.089844 165.597656 111.152344 C 165.496094 111.210938 165.429688 111.300781 165.398438 111.414062 C 165.367188 111.53125 165.382812 111.640625 165.441406 111.742188 C 166.957031 114.953125 168.515625 118.144531 170.117188 121.316406 L 172.507812 126.070312 L 174.933594 130.8125 L 177.378906 135.539062 L 179.847656 140.25 C 181.507812 143.378906 183.164062 146.515625 184.847656 149.636719 L 187.28125 154.136719 L 190.171875 149.597656 C 192.0625 146.632812 193.90625 143.648438 195.769531 140.671875 L 201.316406 131.710938 L 204.070312 127.214844 L 205.441406 124.976562 L 206.804688 122.734375 C 208.183594 120.453125 209.5625 118.179688 210.929688 115.894531 C 212.019531 115.894531 245.273438 115.765625 246.59375 115.742188 L 240.878906 124.8125 C 239.253906 127.402344 237.601562 129.964844 235.960938 132.542969 L 231.027344 140.261719 L 211.265625 171.128906 L 210.234375 172.734375 L 211.265625 174.226562 L 228.398438 199.234375 L 245.570312 224.21875 L 254.15625 236.703125 L 262.769531 249.171875 C 268.507812 257.5 274.269531 265.804688 280.046875 274.09375 C 280.113281 274.1875 280.203125 274.246094 280.316406 274.269531 C 280.429688 274.292969 280.535156 274.273438 280.632812 274.207031 C 280.730469 274.144531 280.789062 274.054688 280.8125 273.941406 C 280.835938 273.824219 280.816406 273.71875 280.753906 273.621094 Z M 280.753906 273.605469 "/></g><g clip-rule="nonzero" clip-path="url(#856f3fc337)"><path style=" stroke:none;fill-rule:nonzero;fill:#000000;fill-opacity:1;" d="M 204.882812 224.042969 L 202.492188 219.28125 L 200.066406 214.546875 L 197.617188 209.820312 L 195.152344 205.109375 C 193.492188 201.976562 191.835938 198.839844 190.148438 195.722656 L 187.71875 191.21875 L 184.828125 195.761719 C 182.9375 198.722656 181.09375 201.710938 179.226562 204.6875 L 173.675781 213.648438 L 170.929688 218.144531 L 169.550781 220.382812 L 168.195312 222.625 C 166.816406 224.90625 165.449219 227.1875 164.085938 229.464844 C 162.996094 229.464844 129.746094 229.597656 128.421875 229.621094 L 134.121094 220.546875 C 135.75 217.960938 137.402344 215.394531 139.039062 212.816406 L 143.976562 205.09375 L 163.738281 174.230469 L 164.761719 172.625 L 163.738281 171.132812 L 146.601562 146.175781 L 129.433594 121.246094 L 120.847656 108.785156 L 112.226562 96.34375 C 106.492188 88.039062 100.734375 79.753906 94.953125 71.484375 C 94.890625 71.390625 94.800781 71.332031 94.691406 71.308594 C 94.578125 71.285156 94.476562 71.304688 94.378906 71.363281 C 94.28125 71.425781 94.21875 71.515625 94.191406 71.628906 C 94.164062 71.742188 94.183594 71.851562 94.242188 71.949219 C 99.621094 80.496094 104.996094 89.035156 110.371094 97.570312 L 118.445312 110.371094 L 126.546875 123.148438 L 142.777344 148.703125 L 158.011719 172.628906 L 138.414062 201.421875 L 133.25 208.992188 C 131.523438 211.507812 129.8125 214.039062 128.070312 216.550781 L 117.640625 231.617188 L 113.425781 237.710938 L 169.042969 238.082031 L 170.21875 235.972656 C 171.933594 232.902344 173.613281 229.816406 175.300781 226.738281 L 176.566406 224.421875 L 177.820312 222.105469 L 180.328125 217.46875 L 185.261719 208.175781 L 187.785156 203.378906 L 190.679688 207.753906 L 193.636719 212.175781 L 196.621094 216.585938 L 199.609375 220.984375 L 202.636719 225.363281 C 204.660156 228.28125 206.71875 231.175781 208.808594 234.050781 C 208.875 234.140625 208.960938 234.195312 209.066406 234.21875 C 209.175781 234.238281 209.277344 234.222656 209.371094 234.164062 C 209.464844 234.109375 209.527344 234.03125 209.558594 233.925781 C 209.589844 233.820312 209.585938 233.71875 209.539062 233.621094 C 208.035156 230.417969 206.484375 227.222656 204.882812 224.042969 Z M 204.882812 224.042969 "/></g><g style="fill:#000000;fill-opacity:1;"><g transform="translate(153.606995, 302.326267)"><path style="stroke:none" d="M 1.359375 -4.953125 L 0.125 -4.953125 L 0.125 -5.484375 L 3.125 -5.484375 L 3.125 -4.953125 L 1.90625 -4.953125 L 1.90625 0 L 1.359375 0 Z M 1.359375 -4.953125 "/></g></g><g style="fill:#000000;fill-opacity:1;"><g transform="translate(157.243359, 302.326267)"><path style="stroke:none" d="M 2.234375 -5.484375 C 2.859375 -5.484375 3.328125 -5.351562 3.640625 -5.09375 C 3.953125 -4.832031 4.109375 -4.476562 4.109375 -4.03125 C 4.109375 -3.695312 4.023438 -3.421875 3.859375 -3.203125 C 3.703125 -2.984375 3.484375 -2.816406 3.203125 -2.703125 C 2.921875 -2.597656 2.585938 -2.546875 2.203125 -2.546875 L 4.171875 0 L 3.5 0 L 1.5625 -2.546875 L 1.21875 -2.546875 L 1.21875 0 L 0.671875 0 L 0.671875 -5.484375 Z M 2.203125 -3.09375 C 2.617188 -3.09375 2.941406 -3.164062 3.171875 -3.3125 C 3.410156 -3.46875 3.53125 -3.707031 3.53125 -4.03125 C 3.53125 -4.3125 3.429688 -4.535156 3.234375 -4.703125 C 3.035156 -4.867188 2.738281 -4.953125 2.34375 -4.953125 L 1.21875 -4.953125 L 1.21875 -3.09375 Z M 2.203125 -3.09375 "/></g></g><g style="fill:#000000;fill-opacity:1;"><g transform="translate(162.147874, 302.326267)"><path style="stroke:none" d="M 4.703125 0 L 3.859375 -1.796875 L 1.453125 -1.796875 L 0.609375 0 L 0.03125 0 L 2.59375 -5.484375 L 2.734375 -5.484375 L 5.265625 0 Z M 1.703125 -2.328125 L 3.609375 -2.328125 L 2.65625 -4.375 Z M 1.703125 -2.328125 "/></g></g><g style="fill:#000000;fill-opacity:1;"><g transform="translate(167.839251, 302.326267)"><path style="stroke:none" d="M 2.015625 -5.484375 C 2.710938 -5.484375 3.300781 -5.378906 3.78125 -5.171875 C 4.269531 -4.960938 4.644531 -4.644531 4.90625 -4.21875 C 5.164062 -3.800781 5.296875 -3.289062 5.296875 -2.6875 C 5.296875 -1.8125 5.046875 -1.144531 4.546875 -0.6875 C 4.054688 -0.226562 3.296875 0 2.265625 0 L 0.671875 0 L 0.671875 -5.484375 Z M 2.265625 -0.53125 C 3.066406 -0.53125 3.675781 -0.703125 4.09375 -1.046875 C 4.507812 -1.398438 4.71875 -1.941406 4.71875 -2.671875 C 4.71875 -3.453125 4.484375 -4.023438 4.015625 -4.390625 C 3.546875 -4.765625 2.878906 -4.953125 2.015625 -4.953125 L 1.21875 -4.953125 L 1.21875 -0.53125 Z M 2.265625 -0.53125 "/></g></g><g style="fill:#000000;fill-opacity:1;"><g transform="translate(173.943162, 302.326267)"><path style="stroke:none" d="M 0.671875 -5.484375 L 3.796875 -5.484375 L 3.796875 -4.953125 L 1.21875 -4.953125 L 1.21875 -3.21875 L 3.796875 -3.21875 L 3.796875 -2.703125 L 1.21875 -2.703125 L 1.21875 -0.53125 L 3.796875 -0.53125 L 3.796875 0 L 0.671875 0 Z M 0.671875 -5.484375 "/></g></g><g style="fill:#000000;fill-opacity:1;"><g transform="translate(178.412229, 302.326267)"><path style="stroke:none" d=""/></g></g><g style="fill:#000000;fill-opacity:1;"><g transform="translate(180.910317, 302.326267)"><path style="stroke:none" d="M 6.59375 0 L 6.0625 0 L 5.5625 -3.734375 L 5.53125 -3.921875 L 5.4375 -3.734375 L 3.59375 0 L 3.453125 0 L 1.578125 -3.75 L 1.484375 -3.953125 L 1.453125 -3.71875 L 0.953125 0 L 0.421875 0 L 1.203125 -5.484375 L 1.296875 -5.484375 L 3.4375 -1.15625 L 3.515625 -0.984375 L 3.609375 -1.171875 L 5.734375 -5.484375 L 5.828125 -5.484375 Z M 6.59375 0 "/></g></g><g style="fill:#000000;fill-opacity:1;"><g transform="translate(188.31293, 302.326267)"><path style="stroke:none" d="M 4.703125 0 L 3.859375 -1.796875 L 1.453125 -1.796875 L 0.609375 0 L 0.03125 0 L 2.59375 -5.484375 L 2.734375 -5.484375 L 5.265625 0 Z M 1.703125 -2.328125 L 3.609375 -2.328125 L 2.65625 -4.375 Z M 1.703125 -2.328125 "/></g></g><g style="fill:#000000;fill-opacity:1;"><g transform="translate(194.004307, 302.326267)"><path style="stroke:none" d="M 4.421875 -5.484375 L 4.96875 -5.484375 L 4.96875 0 L 4.84375 0 L 1.21875 -4.15625 L 1.21875 0 L 0.671875 0 L 0.671875 -5.484375 L 0.78125 -5.484375 L 4.421875 -1.28125 Z M 4.421875 -5.484375 "/></g></g><g style="fill:#000000;fill-opacity:1;"><g transform="translate(200.008903, 302.326267)"><path style="stroke:none" d="M 4.703125 0 L 3.859375 -1.796875 L 1.453125 -1.796875 L 0.609375 0 L 0.03125 0 L 2.59375 -5.484375 L 2.734375 -5.484375 L 5.265625 0 Z M 1.703125 -2.328125 L 3.609375 -2.328125 L 2.65625 -4.375 Z M 1.703125 -2.328125 "/></g></g><g style="fill:#000000;fill-opacity:1;"><g transform="translate(205.70028, 302.326267)"><path style="stroke:none" d="M 6.28125 -2.640625 L 6.28125 -2.625 C 6.28125 -2.050781 6.164062 -1.554688 5.9375 -1.140625 C 5.707031 -0.734375 5.382812 -0.421875 4.96875 -0.203125 C 4.550781 0.015625 4.070312 0.125 3.53125 0.125 C 2.914062 0.125 2.375 -0.00390625 1.90625 -0.265625 C 1.4375 -0.535156 1.070312 -0.890625 0.8125 -1.328125 C 0.5625 -1.765625 0.4375 -2.238281 0.4375 -2.75 C 0.4375 -3.257812 0.5625 -3.734375 0.8125 -4.171875 C 1.070312 -4.617188 1.425781 -4.972656 1.875 -5.234375 C 2.332031 -5.492188 2.859375 -5.625 3.453125 -5.625 C 3.941406 -5.625 4.382812 -5.535156 4.78125 -5.359375 C 5.1875 -5.179688 5.578125 -4.914062 5.953125 -4.5625 L 5.546875 -4.171875 C 5.234375 -4.460938 4.894531 -4.6875 4.53125 -4.84375 C 4.175781 -5.007812 3.820312 -5.09375 3.46875 -5.09375 C 3.007812 -5.09375 2.59375 -4.988281 2.21875 -4.78125 C 1.84375 -4.582031 1.546875 -4.300781 1.328125 -3.9375 C 1.117188 -3.582031 1.015625 -3.191406 1.015625 -2.765625 C 1.015625 -2.335938 1.125 -1.941406 1.34375 -1.578125 C 1.5625 -1.222656 1.863281 -0.9375 2.25 -0.71875 C 2.632812 -0.507812 3.066406 -0.40625 3.546875 -0.40625 C 3.898438 -0.40625 4.226562 -0.46875 4.53125 -0.59375 C 4.832031 -0.726562 5.082031 -0.921875 5.28125 -1.171875 C 5.488281 -1.429688 5.617188 -1.738281 5.671875 -2.09375 L 3.921875 -2.09375 L 3.921875 -2.640625 Z M 6.28125 -2.640625 "/></g></g><g style="fill:#000000;fill-opacity:1;"><g transform="translate(212.743845, 302.326267)"><path style="stroke:none" d="M 0.671875 -5.484375 L 3.796875 -5.484375 L 3.796875 -4.953125 L 1.21875 -4.953125 L 1.21875 -3.21875 L 3.796875 -3.21875 L 3.796875 -2.703125 L 1.21875 -2.703125 L 1.21875 -0.53125 L 3.796875 -0.53125 L 3.796875 0 L 0.671875 0 Z M 0.671875 -5.484375 "/></g></g><g style="fill:#000000;fill-opacity:1;"><g transform="translate(217.212911, 302.326267)"><path style="stroke:none" d="M 2.234375 -5.484375 C 2.859375 -5.484375 3.328125 -5.351562 3.640625 -5.09375 C 3.953125 -4.832031 4.109375 -4.476562 4.109375 -4.03125 C 4.109375 -3.695312 4.023438 -3.421875 3.859375 -3.203125 C 3.703125 -2.984375 3.484375 -2.816406 3.203125 -2.703125 C 2.921875 -2.597656 2.585938 -2.546875 2.203125 -2.546875 L 4.171875 0 L 3.5 0 L 1.5625 -2.546875 L 1.21875 -2.546875 L 1.21875 0 L 0.671875 0 L 0.671875 -5.484375 Z M 2.203125 -3.09375 C 2.617188 -3.09375 2.941406 -3.164062 3.171875 -3.3125 C 3.410156 -3.46875 3.53125 -3.707031 3.53125 -4.03125 C 3.53125 -4.3125 3.429688 -4.535156 3.234375 -4.703125 C 3.035156 -4.867188 2.738281 -4.953125 2.34375 -4.953125 L 1.21875 -4.953125 L 1.21875 -3.09375 Z M 2.203125 -3.09375 "/></g></g><g style="fill:#000000;fill-opacity:1;"><g transform="translate(125.089458, 286.959075)"><path style="stroke:none" d="M 3.5625 -5.015625 L 0.671875 -9.734375 L 1.8125 -9.734375 L 4.140625 -5.9375 L 6.484375 -9.734375 L 7.609375 -9.734375 L 4.71875 -5.015625 L 7.796875 0 L 6.671875 0 L 4.140625 -4.078125 L 1.59375 0 L 0.453125 0 Z M 3.5625 -5.015625 "/></g></g><g style="fill:#000000;fill-opacity:1;"><g transform="translate(144.181073, 286.959075)"><path style="stroke:none" d="M 2.90625 0.234375 C 2.457031 0.234375 2.023438 0.132812 1.609375 -0.0625 C 1.203125 -0.257812 0.851562 -0.5 0.5625 -0.78125 L 1.109375 -1.59375 C 1.390625 -1.320312 1.6875 -1.109375 2 -0.953125 C 2.3125 -0.796875 2.617188 -0.71875 2.921875 -0.71875 C 3.378906 -0.71875 3.734375 -0.875 3.984375 -1.1875 C 4.234375 -1.5 4.359375 -2.003906 4.359375 -2.703125 L 4.359375 -9.734375 L 5.34375 -9.734375 L 5.34375 -2.546875 C 5.34375 -0.691406 4.53125 0.234375 2.90625 0.234375 Z M 2.90625 0.234375 "/></g></g><g style="fill:#000000;fill-opacity:1;"><g transform="translate(161.55258, 286.959075)"><path style="stroke:none" d="M 5.890625 0.25 C 4.921875 0.25 4.046875 0.0195312 3.265625 -0.4375 C 2.484375 -0.90625 1.867188 -1.523438 1.421875 -2.296875 C 0.984375 -3.078125 0.765625 -3.921875 0.765625 -4.828125 C 0.765625 -5.773438 0.988281 -6.640625 1.4375 -7.421875 C 1.882812 -8.210938 2.492188 -8.832031 3.265625 -9.28125 C 4.046875 -9.738281 4.894531 -9.96875 5.8125 -9.96875 C 6.78125 -9.96875 7.660156 -9.742188 8.453125 -9.296875 C 9.242188 -8.847656 9.867188 -8.234375 10.328125 -7.453125 C 10.785156 -6.671875 11.015625 -5.804688 11.015625 -4.859375 C 11.015625 -3.921875 10.785156 -3.0625 10.328125 -2.28125 C 9.878906 -1.5 9.265625 -0.878906 8.484375 -0.421875 C 7.703125 0.0234375 6.835938 0.25 5.890625 0.25 Z M 5.859375 -0.703125 C 6.609375 -0.703125 7.300781 -0.878906 7.9375 -1.234375 C 8.570312 -1.597656 9.070312 -2.097656 9.4375 -2.734375 C 9.8125 -3.367188 10 -4.082031 10 -4.875 C 10 -5.664062 9.804688 -6.378906 9.421875 -7.015625 C 9.035156 -7.648438 8.523438 -8.140625 7.890625 -8.484375 C 7.265625 -8.835938 6.585938 -9.015625 5.859375 -9.015625 C 5.148438 -9.015625 4.476562 -8.835938 3.84375 -8.484375 C 3.21875 -8.128906 2.71875 -7.628906 2.34375 -6.984375 C 1.96875 -6.347656 1.78125 -5.628906 1.78125 -4.828125 C 1.78125 -4.046875 1.96875 -3.34375 2.34375 -2.71875 C 2.71875 -2.09375 3.210938 -1.597656 3.828125 -1.234375 C 4.453125 -0.878906 5.128906 -0.703125 5.859375 -0.703125 Z M 5.859375 -0.703125 "/></g></g><g style="fill:#000000;fill-opacity:1;"><g transform="translate(184.165688, 286.959075)"><path style="stroke:none" d="M 4.4375 0.25 C 3.78125 0.25 3.207031 0.101562 2.71875 -0.1875 C 2.238281 -0.476562 1.867188 -0.894531 1.609375 -1.4375 C 1.347656 -1.988281 1.21875 -2.644531 1.21875 -3.40625 L 1.21875 -9.734375 L 2.1875 -9.734375 L 2.1875 -3.203125 C 2.1875 -2.722656 2.269531 -2.296875 2.4375 -1.921875 C 2.613281 -1.546875 2.867188 -1.25 3.203125 -1.03125 C 3.546875 -0.8125 3.957031 -0.703125 4.4375 -0.703125 C 4.9375 -0.703125 5.351562 -0.8125 5.6875 -1.03125 C 6.019531 -1.25 6.269531 -1.546875 6.4375 -1.921875 C 6.601562 -2.296875 6.6875 -2.710938 6.6875 -3.171875 L 6.6875 -9.734375 L 7.671875 -9.734375 L 7.671875 -3.40625 C 7.671875 -2.644531 7.535156 -1.988281 7.265625 -1.4375 C 7.003906 -0.894531 6.632812 -0.476562 6.15625 -0.1875 C 5.675781 0.101562 5.101562 0.25 4.4375 0.25 Z M 4.4375 0.25 "/></g></g><g style="fill:#000000;fill-opacity:1;"><g transform="translate(203.88034, 286.959075)"><path style="stroke:none" d="M 3.953125 -9.734375 C 5.066406 -9.734375 5.898438 -9.5 6.453125 -9.03125 C 7.003906 -8.570312 7.28125 -7.941406 7.28125 -7.140625 C 7.28125 -6.554688 7.140625 -6.070312 6.859375 -5.6875 C 6.578125 -5.300781 6.179688 -5.007812 5.671875 -4.8125 C 5.171875 -4.625 4.582031 -4.53125 3.90625 -4.53125 L 7.40625 0 L 6.203125 0 L 2.765625 -4.53125 L 2.15625 -4.53125 L 2.15625 0 L 1.171875 0 L 1.171875 -9.734375 Z M 3.90625 -5.46875 C 4.65625 -5.46875 5.234375 -5.601562 5.640625 -5.875 C 6.054688 -6.144531 6.265625 -6.566406 6.265625 -7.140625 C 6.265625 -7.640625 6.085938 -8.035156 5.734375 -8.328125 C 5.378906 -8.628906 4.847656 -8.78125 4.140625 -8.78125 L 2.15625 -8.78125 L 2.15625 -5.46875 Z M 3.90625 -5.46875 "/></g></g><g style="fill:#000000;fill-opacity:1;"><g transform="translate(222.7417, 286.959075)"><path style="stroke:none" d="M 7.828125 -9.734375 L 8.8125 -9.734375 L 8.8125 0 L 8.59375 0 L 2.15625 -7.359375 L 2.15625 0 L 1.171875 0 L 1.171875 -9.734375 L 1.375 -9.734375 L 7.828125 -2.28125 Z M 7.828125 -9.734375 "/></g></g><g style="fill:#000000;fill-opacity:1;"><g transform="translate(243.553437, 286.959075)"><path style="stroke:none" d="M 8.328125 0 L 6.84375 -3.203125 L 2.578125 -3.203125 L 1.078125 0 L 0.0625 0 L 4.609375 -9.734375 L 4.84375 -9.734375 L 9.34375 0 Z M 3 -4.125 L 6.40625 -4.125 L 4.71875 -7.765625 Z M 3 -4.125 "/></g></g><g style="fill:#000000;fill-opacity:1;"><g transform="translate(263.809849, 286.959075)"><path style="stroke:none" d="M 2.15625 -9.734375 L 2.15625 -0.953125 L 5.890625 -0.953125 L 5.890625 0 L 1.171875 0 L 1.171875 -9.734375 Z M 2.15625 -9.734375 "/></g></g></g></svg>